<?xml version="1.0" standalone="no"?>
<!DOCTYPE svg PUBLIC "-//W3C//DTD SVG 20010904//EN"
 "http://www.w3.org/TR/2001/REC-SVG-20010904/DTD/svg10.dtd">
<svg version="1.0" xmlns="http://www.w3.org/2000/svg"
 width="500.000000pt" height="500.000000pt" viewBox="0 0 500.000000 500.000000"
 preserveAspectRatio="xMidYMid meet">

<g transform="translate(0.000000,500.000000) scale(0.100000,-0.100000)"
fill="#000000" stroke="none">
<path d="M0 2500 l0 -2500 2500 0 2500 0 0 2500 0 2500 -2500 0 -2500 0 0
-2500z m2119 1465 c252 -48 688 -223 1223 -491 193 -96 348 -202 348 -238 0
-6 -14 -28 -30 -48 -29 -35 -32 -36 -67 -26 -21 6 -89 33 -153 60 -242 105
-320 137 -320 130 1 -10 112 -95 313 -241 95 -68 201 -147 237 -176 36 -28 80
-60 98 -69 19 -10 32 -24 32 -36 0 -10 5 -22 10 -25 6 -3 7 -17 4 -30 -3 -12
-1 -26 4 -29 14 -8 -10 -107 -34 -143 -13 -19 -19 -46 -19 -85 0 -46 -4 -61
-24 -82 -32 -34 -21 -59 53 -117 31 -24 63 -58 71 -76 9 -18 20 -35 25 -38 6
-3 10 -21 10 -40 0 -34 14 -54 25 -35 3 5 11 10 17 10 6 0 4 -8 -5 -18 -21
-23 -22 -42 -2 -42 12 0 14 -4 5 -19 -8 -16 -6 -22 7 -30 17 -9 16 -11 -1 -30
-35 -39 -136 -80 -216 -88 l-74 -8 62 -47 c34 -25 117 -74 184 -108 68 -34
152 -79 186 -99 l64 -36 -7 -40 c-3 -22 -13 -50 -21 -63 -8 -12 -12 -27 -8
-33 3 -6 -5 -23 -19 -37 -13 -15 -36 -46 -51 -69 -31 -51 -53 -58 -147 -49
-86 8 -161 36 -219 82 -24 19 -57 38 -73 41 -15 3 -30 10 -33 14 -9 16 -20 10
-32 -17 -14 -30 -10 -39 44 -87 29 -26 47 -35 60 -30 14 5 16 3 9 -13 -17 -40
-16 -64 1 -93 17 -28 17 -31 1 -49 -9 -10 -17 -32 -17 -48 0 -41 -40 -77 -119
-109 -56 -23 -69 -25 -112 -16 -27 6 -77 22 -111 36 -112 46 -129 47 -236 14
-105 -32 -191 -37 -236 -14 -35 18 -46 19 -46 2 0 -9 -11 -12 -34 -9 -18 2
-36 0 -40 -6 -3 -5 -25 0 -53 14 -50 26 -140 34 -127 12 11 -17 -17 -5 -80 36
-36 23 -56 31 -59 23 -3 -8 -30 1 -83 28 -44 22 -89 39 -102 37 -22 -3 -125
49 -137 69 -4 5 -21 15 -38 23 -18 7 -74 45 -124 83 -103 77 -282 187 -334
205 -19 6 -42 17 -51 26 -10 8 -39 24 -65 37 -27 12 -96 59 -155 103 -168 128
-410 282 -444 282 -3 0 6 -14 21 -31 14 -17 24 -34 21 -37 -20 -19 -316 222
-316 257 0 24 -66 180 -85 201 -15 17 -15 19 1 28 16 9 16 12 1 42 -16 31 -16
34 3 58 11 13 20 22 20 18 0 -4 8 -2 19 3 22 12 34 61 19 78 -5 7 -7 16 -4 21
3 5 -5 25 -18 44 -23 34 -23 36 -6 58 10 13 28 25 40 27 19 3 21 1 10 -12 -11
-14 -5 -15 56 -9 38 3 82 5 97 5 18 0 25 4 21 11 -5 7 1 9 20 4 32 -8 27 7
-11 37 -30 24 -29 37 2 37 29 0 34 24 7 39 -16 10 -15 12 6 29 21 16 21 19 6
40 -15 22 -15 27 0 60 8 20 25 80 36 131 11 52 25 100 31 105 9 8 10 8 5 -1
-4 -7 39 -34 122 -77 128 -65 351 -161 358 -154 2 2 -48 34 -111 72 -110 65
-241 125 -277 126 -22 0 -24 20 -2 20 25 0 10 24 -26 41 -30 15 -32 17 -15 26
18 10 18 12 2 36 -9 14 -35 45 -57 68 -45 48 -46 52 -24 104 10 25 18 34 23
26 6 -9 11 -8 20 3 9 11 28 13 87 9 40 -3 74 -3 74 0 0 3 -22 13 -50 22 -27 9
-50 21 -50 25 0 5 8 7 18 3 15 -6 14 -3 -3 18 -11 13 -27 30 -35 37 -13 12
-13 13 3 8 26 -8 20 7 -18 44 -40 39 -43 50 -16 50 27 0 34 15 21 41 -6 11 -9
27 -6 35 5 13 10 13 36 -1 30 -16 40 -9 19 12 -7 7 -9 19 -5 28 5 13 14 15 53
9 27 -3 56 -11 66 -16 12 -6 17 -5 17 6 0 21 181 -54 209 -88 7 -8 19 -12 27
-9 15 5 15 33 1 44 -11 8 14 54 47 92 l25 27 160 -40 c88 -22 164 -40 169 -40
4 0 14 16 21 35 7 19 28 51 47 71 l34 37 108 -6 c59 -4 145 -14 191 -22z"/>
<path d="M2464 3144 c-22 -5 -48 -49 -38 -65 3 -5 -2 -17 -11 -26 -11 -11 -15
-26 -11 -44 4 -22 2 -27 -9 -22 -9 3 -15 -1 -15 -11 0 -18 -13 -20 -41 -6 -15
9 -19 22 -19 69 0 62 -7 71 -57 77 -21 3 -23 -1 -23 -51 l0 -55 -52 23 c-48
21 -53 26 -51 53 1 16 0 23 -3 17 -8 -18 -25 -16 -18 1 6 17 -12 31 -21 16 -4
-6 -11 -8 -16 -5 -5 4 -12 -1 -15 -10 -5 -12 -14 -15 -33 -11 -25 5 -25 5 -3
-6 21 -11 22 -15 15 -72 -13 -97 -8 -180 13 -222 16 -34 24 -39 56 -42 20 -2
51 4 68 13 40 21 60 13 61 -22 0 -25 1 -26 9 -8 8 19 9 19 9 -2 2 -45 36 -19
44 32 4 30 4 30 12 6 8 -23 9 -24 16 -5 7 18 8 17 8 -3 1 -25 23 -31 38 -10 6
6 16 29 22 50 7 20 13 37 14 37 1 0 23 7 49 15 42 12 49 12 63 -2 10 -9 13
-24 10 -37 -5 -15 -4 -17 3 -8 7 11 11 8 14 -12 3 -14 1 -23 -3 -20 -14 8 -11
-3 11 -43 11 -21 20 -43 20 -49 0 -7 8 -10 19 -7 16 4 19 14 19 59 0 30 2 57
5 60 9 10 67 -29 73 -49 3 -10 12 -16 19 -13 15 6 104 -44 155 -87 17 -15 38
-27 45 -27 22 0 -2 58 -31 76 -13 7 -36 21 -50 30 l-27 16 62 30 c83 40 114
82 119 162 4 57 2 65 -30 106 -44 59 -105 90 -179 90 l-57 0 -17 -72 c-9 -40
-19 -110 -22 -156 -3 -45 -9 -84 -12 -87 -16 -9 -51 33 -55 67 -5 34 -2 39 19
44 14 3 22 10 19 15 -3 5 -10 7 -15 4 -5 -4 -14 -3 -20 1 -8 4 -7 9 2 15 11 7
10 9 -3 9 -17 0 -29 30 -43 111 -4 19 -10 41 -14 48 -8 13 -64 22 -97 15z
m443 -120 c20 -21 24 -32 20 -59 -8 -52 -36 -82 -95 -105 -74 -28 -82 -27 -76
13 17 126 25 161 36 169 29 18 88 9 115 -18z m-697 -19 c17 -9 30 -23 30 -32
0 -17 -106 -143 -120 -143 -17 0 -13 131 6 192 5 18 22 15 84 -17z"/>
<path d="M1514 3109 c-20 -15 -44 -31 -53 -34 -10 -3 -28 -23 -40 -46 -21 -37
-22 -41 -7 -64 15 -22 30 -29 116 -49 14 -3 32 -10 40 -16 35 -23 -46 -83
-116 -86 -23 -1 -47 -5 -52 -8 -6 -3 -50 5 -99 19 -48 14 -117 28 -153 31
l-65 5 55 -30 c30 -17 64 -30 76 -31 11 0 24 -3 27 -7 4 -3 21 -8 37 -10 17
-1 52 -14 78 -27 74 -38 174 -76 183 -71 4 3 60 -21 125 -53 67 -34 112 -62
106 -66 -17 -10 -15 -48 3 -73 14 -20 14 -28 -1 -82 -12 -42 -21 -58 -30 -54
-8 3 -14 10 -14 15 0 33 -171 122 -230 120 -20 -1 -65 10 -100 24 -34 14 -66
24 -72 22 -5 -2 28 -18 74 -36 129 -51 157 -80 34 -36 -55 19 -103 37 -108 40
-4 3 -8 3 -8 0 0 -16 90 -61 192 -95 143 -48 238 -90 238 -105 0 -7 -34 5 -77
26 -99 48 -256 101 -250 85 2 -7 24 -23 50 -37 59 -33 69 -43 28 -29 -45 16
-50 4 -10 -21 55 -34 137 -54 166 -41 20 9 29 7 53 -11 29 -21 34 -30 31 -55
-1 -6 3 -14 9 -18 5 -3 10 -17 10 -31 0 -17 6 -24 18 -24 22 0 52 58 52 101
l0 29 40 -20 c22 -11 40 -18 40 -15 0 2 -18 16 -40 30 -55 35 -52 51 16 66 57
13 74 29 71 69 -1 21 -5 22 -59 17 -55 -5 -58 -4 -58 17 0 43 17 44 97 4 43
-21 84 -38 92 -38 11 0 13 -17 8 -90 -3 -55 -2 -92 4 -96 6 -3 8 -13 4 -22 -3
-9 6 -26 27 -45 l33 -29 -30 18 c-51 30 -86 46 -91 41 -3 -3 27 -24 65 -48 65
-41 70 -47 71 -79 l0 -35 -27 38 c-14 20 -30 37 -35 37 -4 0 -8 -22 -8 -50 0
-55 17 -69 22 -17 l3 32 20 -32 c27 -45 43 -42 47 10 l3 42 43 -44 c33 -35 50
-45 77 -46 20 0 37 5 39 12 3 7 1 13 -4 13 -6 0 -10 7 -10 15 0 8 -6 12 -13 9
-7 -2 -22 5 -33 17 l-19 22 28 -5 c15 -3 30 -2 33 3 8 13 -42 22 -62 11 -13
-7 -25 -5 -43 7 -17 11 -23 12 -17 3 7 -11 4 -12 -13 -3 -11 7 -21 18 -21 27
0 8 -11 20 -25 26 -29 13 -30 17 -11 43 7 11 16 63 20 120 4 54 9 101 11 103
3 3 11 -1 20 -8 8 -7 15 -8 15 -2 0 5 -7 13 -16 16 -9 4 -15 9 -12 11 3 3 12
3 21 -1 14 -5 16 -20 11 -102 -4 -70 -3 -93 5 -82 9 12 11 11 11 -7 0 -26 8
-28 32 -9 12 9 22 44 33 116 8 57 15 108 15 114 0 24 21 -16 64 -121 25 -61
46 -121 46 -132 0 -23 12 -26 40 -11 11 6 21 27 26 52 l8 43 6 -35 c6 -32 7
-30 14 26 11 79 17 90 45 75 17 -10 21 -21 21 -60 0 -32 5 -53 15 -61 9 -7 12
-16 7 -19 -6 -3 -4 -12 4 -19 10 -9 14 -9 14 -1 0 8 4 8 13 1 13 -11 65 -3
117 18 23 10 34 8 70 -10 54 -28 75 -21 26 9 l-37 23 39 42 c68 74 64 161 -9
241 -46 50 -81 64 -157 64 -45 0 -54 -3 -61 -22 -8 -22 -34 -160 -34 -184 0
-7 -4 -13 -9 -13 -7 0 -12 15 -9 33 0 4 -6 7 -14 7 -19 0 -19 11 0 80 14 53
20 100 8 73 -2 -7 -9 -13 -14 -13 -4 0 -6 7 -3 15 4 8 1 16 -5 16 -44 5 -45 4
-59 -56 -8 -33 -16 -61 -17 -63 -2 -2 -21 6 -43 17 -29 15 -44 30 -52 56 -8
23 -18 35 -30 35 -10 0 -22 5 -25 10 -12 19 -45 10 -55 -15 -11 -30 -20 -31
-46 -6 -23 21 -58 41 -72 41 -5 0 -12 -18 -15 -41 -7 -51 -11 -55 -42 -39 -19
10 -22 17 -15 31 23 41 13 52 -40 47 -27 -3 -50 -2 -50 2 0 3 -12 5 -27 3 -16
-3 -58 7 -96 21 -37 14 -76 26 -87 26 -11 0 -56 18 -100 40 -77 38 -99 60 -63
60 9 0 36 21 61 46 37 40 43 51 38 76 -7 33 -30 56 -93 90 -24 13 -43 27 -43
31 0 11 101 57 126 57 16 0 22 6 22 25 0 29 -24 45 -81 55 -32 6 -43 3 -73
-21z m1229 -610 c29 -16 37 -28 37 -61 0 -44 -30 -96 -62 -107 -25 -9 -35 -6
-67 15 l-38 25 10 57 c5 31 14 63 19 70 13 15 72 16 101 1z"/>
<path d="M1875 3126 c-17 -7 -35 -11 -41 -9 -15 5 -98 -90 -120 -136 -24 -49
-33 -144 -18 -180 6 -15 27 -40 46 -54 30 -23 40 -25 90 -20 54 5 57 4 86 -28
26 -29 32 -32 46 -19 35 28 37 47 11 78 l-25 30 24 36 c55 81 60 205 10 258
-45 47 -74 59 -109 44z m49 -72 c23 -9 20 -79 -4 -133 -18 -39 -23 -43 -50
-39 -29 4 -31 3 -25 -24 5 -21 3 -28 -9 -28 -9 0 -15 -5 -13 -12 3 -16 -31
-22 -47 -9 -49 41 3 180 88 232 34 21 37 22 60 13z"/>
<path d="M2918 2578 c-52 -22 -61 -53 -21 -69 13 -5 23 -13 23 -19 0 -6 -5 -8
-11 -4 -8 4 -9 -1 -4 -15 4 -12 2 -28 -4 -35 -14 -17 -41 -132 -41 -178 0 -39
10 -50 47 -56 16 -2 21 1 17 12 -3 8 -1 17 5 21 6 3 11 28 11 55 0 27 4 51 8
54 4 2 20 -20 36 -49 25 -49 133 -165 153 -165 4 0 14 4 22 9 12 7 12 13 3 24
-7 7 -9 17 -5 21 4 4 -2 15 -13 24 -32 26 -118 141 -111 149 4 3 17 11 29 17
22 11 68 70 68 88 0 4 -14 -6 -31 -24 l-30 -33 27 43 c23 36 25 47 18 74 -19
64 -114 92 -196 56z"/>
<path d="M1030 1966 c0 -11 124 -88 187 -117 37 -16 73 -39 80 -49 8 -11 24
-25 36 -30 20 -10 20 -10 5 3 -33 26 -18 28 30 3 53 -27 92 -55 77 -55 -5 0
-19 6 -29 14 -24 18 -42 20 -28 2 15 -18 171 -95 207 -103 23 -4 16 3 -30 30
-34 19 -69 44 -79 55 -19 21 -19 21 12 10 62 -21 52 -3 -20 40 -40 23 -66 41
-58 38 8 -2 25 0 37 4 14 5 35 3 57 -6 19 -8 42 -12 50 -9 9 3 16 1 16 -5 0
-14 107 -67 116 -58 13 13 -28 46 -77 62 -47 16 -73 35 -48 35 10 0 10 3 1 12
-7 7 -12 17 -12 23 0 5 12 -5 26 -22 14 -18 30 -33 35 -33 5 0 9 23 9 50 0 28
-4 50 -10 50 -5 0 -10 -15 -10 -32 l-1 -33 -27 33 c-33 39 -40 40 -44 6 l-3
-25 -48 25 c-57 31 -69 32 -90 8 -20 -22 -22 -53 -4 -71 6 -7 -23 4 -67 23
-43 20 -80 36 -82 36 -2 0 0 -7 3 -17 7 -19 3 -16 -67 33 -64 45 -150 85 -150
70z"/>
</g>
</svg>
